M48
;Layer_Color=9474304
;FILE_FORMAT=4:4
METRIC,LZ
;TYPE=PLATED
T01F00S00C0.7112
T02F00S00C1.1500
T03F00S00C1.3000
%
T01
X0076708Y001778
X0077851Y0019558
X0069088Y0023749
X0062484Y0030099
X0052959Y0023368
X00407975Y00226365
X004064Y0020066
X0048768Y0035814
X0034544Y0017526
X0015875Y0014097
X0023876Y0004064
X0023114Y0041656
X00177165Y00501015
X0037973Y0049022
X0035941Y0056261
X0059182Y0056642
X0068072Y0057658
X00678815Y00488315
X0061976Y0044577
X0051562
X0054229Y0049149
X0056134Y0040005
X0082296Y0051689
T02
X0079756Y0055753
X0082296
X0084836
X0092456
X0094996
T03
X0089916Y0014558
Y0019558
X0009271Y0017272
Y0012272
X0089789Y0040212
Y0045212
M30
