G04*
G04 #@! TF.GenerationSoftware,Altium Limited,Altium Designer,24.9.1 (31)*
G04*
G04 Layer_Color=8421504*
%FSLAX44Y44*%
%MOMM*%
G71*
G04*
G04 #@! TF.SameCoordinates,1A97B8A7-5C9B-4AB6-975B-EA0C3A3AFBE0*
G04*
G04*
G04 #@! TF.FilePolarity,Positive*
G04*
G01*
G75*
G04:AMPARAMS|DCode=14|XSize=1.8544mm|YSize=0.6121mm|CornerRadius=0.3061mm|HoleSize=0mm|Usage=FLASHONLY|Rotation=0.000|XOffset=0mm|YOffset=0mm|HoleType=Round|Shape=RoundedRectangle|*
%AMROUNDEDRECTD14*
21,1,1.8544,0.0000,0,0,0.0*
21,1,1.2423,0.6121,0,0,0.0*
1,1,0.6121,0.6211,0.0000*
1,1,0.6121,-0.6211,0.0000*
1,1,0.6121,-0.6211,0.0000*
1,1,0.6121,0.6211,0.0000*
%
%ADD14ROUNDEDRECTD14*%
%ADD15R,1.8544X0.6121*%
%ADD16R,1.2500X0.8000*%
%ADD17R,1.5000X4.0000*%
%ADD18R,1.0200X1.4700*%
%ADD19R,1.4700X1.0200*%
%ADD20R,1.0000X1.4500*%
%ADD21R,1.4621X1.2081*%
%ADD22R,1.0546X1.3562*%
%ADD23R,1.6000X0.9000*%
%ADD24R,1.2171X1.5067*%
%ADD25R,1.3500X0.8500*%
%ADD26R,1.4057X1.5082*%
%ADD27R,1.3562X1.0546*%
%ADD28R,1.5562X1.5046*%
%ADD29R,0.8500X1.3500*%
%ADD30R,0.8000X1.2500*%
%ADD31R,4.4000X1.9000*%
D14*
X461156Y226670D02*
D03*
Y217170D02*
D03*
Y207670D02*
D03*
X438150D02*
D03*
Y217170D02*
D03*
X552304Y445770D02*
D03*
Y436270D02*
D03*
X575310D02*
D03*
Y445770D02*
D03*
Y455270D02*
D03*
D15*
X438150Y226670D02*
D03*
X552304Y455270D02*
D03*
D16*
X379730Y87120D02*
D03*
Y71120D02*
D03*
X215900Y461010D02*
D03*
Y445010D02*
D03*
D17*
X579120Y358140D02*
D03*
X543120D02*
D03*
X229870Y539750D02*
D03*
X193870D02*
D03*
X652780Y576580D02*
D03*
X616780D02*
D03*
X763270Y367030D02*
D03*
X727270D02*
D03*
D18*
X741680Y237490D02*
D03*
X725680D02*
D03*
X420880Y342900D02*
D03*
X436880D02*
D03*
D19*
X472440Y547150D02*
D03*
Y563150D02*
D03*
X110490Y418340D02*
D03*
Y434340D02*
D03*
D20*
X224160Y77580D02*
D03*
Y132080D02*
D03*
X264160Y77580D02*
D03*
Y132080D02*
D03*
D21*
X318770Y248920D02*
D03*
Y228880D02*
D03*
D22*
X711924Y488950D02*
D03*
X726440D02*
D03*
X422186Y463550D02*
D03*
X407670D02*
D03*
X651148Y335280D02*
D03*
X636632D02*
D03*
D23*
X114300Y524510D02*
D03*
Y551510D02*
D03*
X624840Y277190D02*
D03*
Y250190D02*
D03*
D24*
X323416Y461010D02*
D03*
X344170D02*
D03*
X597736Y109220D02*
D03*
X618490D02*
D03*
D25*
X336550Y562600D02*
D03*
Y546100D02*
D03*
D26*
X297180Y335280D02*
D03*
X315705D02*
D03*
D27*
X737870Y160566D02*
D03*
Y146050D02*
D03*
D28*
X717314Y57150D02*
D03*
Y75166D02*
D03*
D29*
X570230Y270510D02*
D03*
X553730D02*
D03*
D30*
X521970Y110490D02*
D03*
X505970D02*
D03*
D31*
X147320Y297180D02*
D03*
X60320D02*
D03*
M02*
