G04*
G04 #@! TF.GenerationSoftware,Altium Limited,Altium Designer,24.9.1 (31)*
G04*
G04 Layer_Physical_Order=2*
G04 Layer_Color=16711680*
%FSLAX44Y44*%
%MOMM*%
G71*
G04*
G04 #@! TF.SameCoordinates,1A97B8A7-5C9B-4AB6-975B-EA0C3A3AFBE0*
G04*
G04*
G04 #@! TF.FilePolarity,Positive*
G04*
G01*
G75*
%ADD12C,0.2540*%
%ADD47C,1.0160*%
%ADD50C,0.7620*%
%ADD51C,1.7250*%
%ADD52C,1.7250*%
%ADD53R,1.7250X1.7250*%
G04:AMPARAMS|DCode=54|XSize=1.95mm|YSize=1.95mm|CornerRadius=0.4875mm|HoleSize=0mm|Usage=FLASHONLY|Rotation=270.000|XOffset=0mm|YOffset=0mm|HoleType=Round|Shape=RoundedRectangle|*
%AMROUNDEDRECTD54*
21,1,1.9500,0.9750,0,0,270.0*
21,1,0.9750,1.9500,0,0,270.0*
1,1,0.9750,-0.4875,-0.4875*
1,1,0.9750,-0.4875,0.4875*
1,1,0.9750,0.4875,0.4875*
1,1,0.9750,0.4875,-0.4875*
%
%ADD54ROUNDEDRECTD54*%
%ADD55C,1.9500*%
%ADD56C,1.2700*%
D12*
X158750Y140970D02*
X158750D01*
X677227Y489902D02*
X678815Y488315D01*
X542290Y491490D02*
X543877Y489902D01*
X767080Y177800D02*
X769024Y179744D01*
X529590Y233680D02*
X532339D01*
X536149Y237490D01*
X177165Y501015D02*
X177800Y501650D01*
X176530Y500380D02*
X177165Y501015D01*
D47*
X406400Y200660D02*
X414020Y193040D01*
X594360Y420370D02*
X619760Y445770D01*
X386080Y420370D02*
X594360D01*
X770890Y447040D02*
X807720Y410210D01*
X720090Y447040D02*
X770890D01*
X807720Y195580D02*
Y410210D01*
X791884Y179744D02*
X807720Y195580D01*
X361950Y444500D02*
Y559383D01*
Y444500D02*
X386080Y420370D01*
X359410Y561923D02*
Y562610D01*
Y561923D02*
X361950Y559383D01*
X379730Y490220D02*
Y520700D01*
X554303Y406400D02*
X560653Y400050D01*
X561340D01*
X231140Y416560D02*
X241300Y406400D01*
X554303D01*
X678180Y195580D02*
X778510D01*
X675640Y193040D02*
X678180Y195580D01*
X414020Y193040D02*
X675640D01*
X544830Y300990D02*
X624840D01*
X487680Y358140D02*
X544830Y300990D01*
X218440Y20320D02*
X793750D01*
X678815Y488315D02*
X707390Y516890D01*
X822960D01*
X543877Y489902D02*
X677227D01*
X769024Y179744D02*
X791884D01*
X536149Y237490D02*
X690880D01*
X468630Y393700D02*
X487680Y374650D01*
X345440Y393700D02*
X468630D01*
X203200D02*
X345081D01*
X345440Y175260D02*
Y393700D01*
X176530Y420370D02*
X203200Y393700D01*
X678815Y488315D02*
X720090Y447040D01*
X379730Y520700D02*
X477520Y618490D01*
X660400D01*
X515620Y445770D02*
Y490220D01*
X591820Y566420D01*
X660400Y618490D02*
X680720Y598170D01*
Y576580D02*
Y598170D01*
X793750Y20320D02*
X836930Y63500D01*
Y133350D01*
X176530Y420370D02*
Y500380D01*
X487680Y358140D02*
Y374650D01*
X836930Y133350D02*
X899160Y195580D01*
D50*
X358140Y148590D02*
X372110Y162560D01*
X158750Y140970D02*
X166370Y148590D01*
X358140D01*
X218440Y20320D02*
X238760Y40640D01*
X158750D02*
Y140970D01*
X179070Y20320D02*
X218440D01*
X158750Y40640D02*
X179070Y20320D01*
X372110Y162560D02*
Y218440D01*
X380035Y226365D01*
X407975D01*
D51*
X797560Y557530D02*
D03*
X848360D02*
D03*
X924560D02*
D03*
D52*
X822960D02*
D03*
D53*
X949960D02*
D03*
D54*
X92710Y172720D02*
D03*
X897890Y402120D02*
D03*
X899160Y145580D02*
D03*
D55*
X92710Y122720D02*
D03*
X897890Y452120D02*
D03*
X899160Y195580D02*
D03*
D56*
X406400Y200660D02*
D03*
X619760Y445770D02*
D03*
X379730Y490220D02*
D03*
X238760Y40640D02*
D03*
X158750Y140970D02*
D03*
X822960Y516890D02*
D03*
X542290Y491490D02*
D03*
X690880Y237490D02*
D03*
X529590Y233680D02*
D03*
X624840Y300990D02*
D03*
X345440Y175260D02*
D03*
X778510Y195580D02*
D03*
X767080Y177800D02*
D03*
X678815Y488315D02*
D03*
X359410Y562610D02*
D03*
X680720Y576580D02*
D03*
X515620Y445770D02*
D03*
X591820Y566420D02*
D03*
X561340Y400050D02*
D03*
X231140Y416560D02*
D03*
X177165Y501015D02*
D03*
X487680Y358140D02*
D03*
X407975Y226365D02*
D03*
M02*
