G04*
G04 #@! TF.GenerationSoftware,Altium Limited,Altium Designer,24.9.1 (31)*
G04*
G04 Layer_Physical_Order=1*
G04 Layer_Color=255*
%FSLAX44Y44*%
%MOMM*%
G71*
G04*
G04 #@! TF.SameCoordinates,1A97B8A7-5C9B-4AB6-975B-EA0C3A3AFBE0*
G04*
G04*
G04 #@! TF.FilePolarity,Positive*
G04*
G01*
G75*
%ADD12C,0.2540*%
G04:AMPARAMS|DCode=14|XSize=1.8544mm|YSize=0.6121mm|CornerRadius=0.3061mm|HoleSize=0mm|Usage=FLASHONLY|Rotation=0.000|XOffset=0mm|YOffset=0mm|HoleType=Round|Shape=RoundedRectangle|*
%AMROUNDEDRECTD14*
21,1,1.8544,0.0000,0,0,0.0*
21,1,1.2423,0.6121,0,0,0.0*
1,1,0.6121,0.6211,0.0000*
1,1,0.6121,-0.6211,0.0000*
1,1,0.6121,-0.6211,0.0000*
1,1,0.6121,0.6211,0.0000*
%
%ADD14ROUNDEDRECTD14*%
%ADD15R,1.8544X0.6121*%
%ADD16R,1.2500X0.8000*%
%ADD17R,1.5000X4.0000*%
%ADD18R,1.0200X1.4700*%
%ADD19R,1.4700X1.0200*%
%ADD20R,1.0000X1.4500*%
%ADD21R,1.4621X1.2081*%
%ADD22R,1.0546X1.3562*%
%ADD23R,1.6000X0.9000*%
%ADD24R,1.2171X1.5067*%
%ADD25R,1.3500X0.8500*%
%ADD26R,1.4057X1.5082*%
%ADD27R,1.3562X1.0546*%
%ADD28R,1.5562X1.5046*%
%ADD29R,0.8500X1.3500*%
%ADD30R,0.8000X1.2500*%
%ADD31R,4.4000X1.9000*%
%ADD46C,0.5588*%
%ADD47C,1.0160*%
%ADD48C,0.5080*%
%ADD49C,0.1778*%
%ADD50C,0.7620*%
%ADD51C,1.7250*%
%ADD52C,1.7250*%
%ADD53R,1.7250X1.7250*%
G04:AMPARAMS|DCode=54|XSize=1.95mm|YSize=1.95mm|CornerRadius=0.4875mm|HoleSize=0mm|Usage=FLASHONLY|Rotation=270.000|XOffset=0mm|YOffset=0mm|HoleType=Round|Shape=RoundedRectangle|*
%AMROUNDEDRECTD54*
21,1,1.9500,0.9750,0,0,270.0*
21,1,0.9750,1.9500,0,0,270.0*
1,1,0.9750,-0.4875,-0.4875*
1,1,0.9750,-0.4875,0.4875*
1,1,0.9750,0.4875,0.4875*
1,1,0.9750,0.4875,-0.4875*
%
%ADD54ROUNDEDRECTD54*%
%ADD55C,1.9500*%
%ADD56C,1.2700*%
D12*
X603468Y461228D02*
Y463332D01*
X553730Y270510D02*
Y273010D01*
X379730Y87120D02*
X382460Y89850D01*
X238760Y40640D02*
X239630Y41510D01*
X579120Y358140D02*
X581660Y355600D01*
X547363Y434616D02*
X549017Y436270D01*
X552304D01*
X334050Y546100D02*
X336550D01*
X114300Y524510D02*
X117800D01*
X221910Y134330D02*
X224160Y132080D01*
X325313Y175042D02*
X325531Y175260D01*
X264160Y132080D02*
Y134330D01*
X110490Y434340D02*
X112740D01*
X104410Y414510D02*
X108240Y418340D01*
X104410Y412260D02*
Y414510D01*
X108240Y418340D02*
X110490D01*
X264160Y75330D02*
Y77580D01*
X865447Y401102D02*
X866465Y402120D01*
X816610Y557530D02*
X822960D01*
X797560D02*
X803910D01*
X530860Y468630D02*
X532733D01*
X91910Y122720D02*
X92710D01*
X678815Y488315D02*
X679450Y488950D01*
X678180Y487680D02*
X678815Y488315D01*
X336550Y562600D02*
X336560Y562610D01*
X598170Y317450D02*
Y318770D01*
X621340Y250190D02*
X624840D01*
X616780Y572650D02*
Y576580D01*
X610550Y566420D02*
X616780Y572650D01*
X546093Y455270D02*
X552304D01*
X336550Y546100D02*
X339050D01*
X610550Y585470D02*
X616780Y579240D01*
Y576580D02*
Y579240D01*
X628340Y277190D02*
X631570Y280420D01*
X624840Y277190D02*
X628340D01*
X508980Y325120D02*
X509270Y324830D01*
X632629Y329769D02*
X636632Y333772D01*
X631121Y329769D02*
X632629D01*
X636632Y333772D02*
Y335280D01*
X575310Y436270D02*
X575970Y435610D01*
X420880Y342900D02*
Y345150D01*
X793750Y350520D02*
X795020Y349250D01*
X726440Y366200D02*
X727270Y367030D01*
X420880Y340650D02*
Y342900D01*
X405130Y461010D02*
X407670Y463550D01*
X110490Y521280D02*
X113720Y524510D01*
X114300D01*
X110490Y418340D02*
X112740D01*
X116570Y414510D01*
X317500Y228880D02*
X318770D01*
X320040D01*
X407975Y226365D02*
X408280Y226670D01*
X596466Y110490D02*
X597736Y109220D01*
D14*
X461156Y226670D02*
D03*
Y217170D02*
D03*
Y207670D02*
D03*
X438150D02*
D03*
Y217170D02*
D03*
X552304Y445770D02*
D03*
Y436270D02*
D03*
X575310D02*
D03*
Y445770D02*
D03*
Y455270D02*
D03*
D15*
X438150Y226670D02*
D03*
X552304Y455270D02*
D03*
D16*
X379730Y87120D02*
D03*
Y71120D02*
D03*
X215900Y461010D02*
D03*
Y445010D02*
D03*
D17*
X579120Y358140D02*
D03*
X543120D02*
D03*
X229870Y539750D02*
D03*
X193870D02*
D03*
X652780Y576580D02*
D03*
X616780D02*
D03*
X763270Y367030D02*
D03*
X727270D02*
D03*
D18*
X741680Y237490D02*
D03*
X725680D02*
D03*
X420880Y342900D02*
D03*
X436880D02*
D03*
D19*
X472440Y547150D02*
D03*
Y563150D02*
D03*
X110490Y418340D02*
D03*
Y434340D02*
D03*
D20*
X224160Y77580D02*
D03*
Y132080D02*
D03*
X264160Y77580D02*
D03*
Y132080D02*
D03*
D21*
X318770Y248920D02*
D03*
Y228880D02*
D03*
D22*
X711924Y488950D02*
D03*
X726440D02*
D03*
X422186Y463550D02*
D03*
X407670D02*
D03*
X651148Y335280D02*
D03*
X636632D02*
D03*
D23*
X114300Y524510D02*
D03*
Y551510D02*
D03*
X624840Y277190D02*
D03*
Y250190D02*
D03*
D24*
X323416Y461010D02*
D03*
X344170D02*
D03*
X597736Y109220D02*
D03*
X618490D02*
D03*
D25*
X336550Y562600D02*
D03*
Y546100D02*
D03*
D26*
X297180Y335280D02*
D03*
X315705D02*
D03*
D27*
X737870Y160566D02*
D03*
Y146050D02*
D03*
D28*
X717314Y57150D02*
D03*
Y75166D02*
D03*
D29*
X570230Y270510D02*
D03*
X553730D02*
D03*
D30*
X521970Y110490D02*
D03*
X505970D02*
D03*
D31*
X147320Y297180D02*
D03*
X60320D02*
D03*
D46*
X461156Y226670D02*
X484480D01*
X491490Y233680D01*
X529590D01*
X575310Y445770D02*
X619760D01*
X597510Y455270D02*
X603468Y461228D01*
X575310Y455270D02*
X597510D01*
X532733Y468630D02*
X546093Y455270D01*
X461156Y217170D02*
X588320D01*
X621340Y250190D01*
X515620Y445770D02*
X552304D01*
X575970Y435610D02*
X591820D01*
X601980Y425450D01*
Y406400D02*
Y425450D01*
X561340Y400050D02*
X595630D01*
X601980Y406400D01*
X461156Y207670D02*
X480670D01*
X487680Y200660D01*
X408280Y226670D02*
X438150D01*
D47*
X822960Y557530D02*
X839470Y574040D01*
X908050D02*
X924560Y557530D01*
X839470Y574040D02*
X908050D01*
X345440Y175260D02*
X401320D01*
X433730Y207670D02*
X438150D01*
X401320Y175260D02*
X433730Y207670D01*
X777240Y208480D02*
Y318552D01*
Y208480D02*
X778510Y207210D01*
X533400Y533400D02*
X603468Y463332D01*
X500380Y533400D02*
X533400D01*
X795020Y349250D02*
Y406400D01*
X765810Y435610D02*
X795020Y406400D01*
X379730Y461010D02*
Y490220D01*
X411480Y445770D02*
X445770D01*
Y473710D01*
X422910Y546100D02*
X500380Y468630D01*
X339050Y546100D02*
X422910D01*
X500380Y468630D02*
X530860D01*
X509270Y318770D02*
X576580D01*
X553730Y270510D02*
Y295920D01*
X576580Y318770D01*
X598170D01*
X834390Y408940D02*
Y466090D01*
X848360Y480060D01*
Y557530D01*
X834390Y408940D02*
X842228Y401102D01*
X177165Y510545D02*
X193870Y527250D01*
X177165Y501015D02*
Y510545D01*
X317500Y40640D02*
X364490D01*
X379730Y55880D01*
Y71120D01*
X382460Y89850D02*
X434020D01*
X238760Y40640D02*
X317500D01*
X581660Y355600D02*
X599440D01*
X619760Y335280D02*
X636632D01*
X599440Y355600D02*
X619760Y335280D01*
X487680Y358140D02*
X543120D01*
X547363Y417823D02*
Y434616D01*
X487680Y358140D02*
X547363Y417823D01*
X472440Y563150D02*
X494760Y585470D01*
X763270Y237490D02*
X773430Y227330D01*
X741680Y237490D02*
X763270D01*
X114300Y551510D02*
X150800Y588010D01*
X311140D02*
X336550Y562600D01*
X150800Y588010D02*
X311140D01*
X229870Y539750D02*
X327700D01*
X334050Y546100D01*
X117800Y524510D02*
X141295Y501015D01*
X177165D01*
X214630Y134330D02*
X221910D01*
X207990Y140970D02*
X214630Y134330D01*
X158750Y140970D02*
X207990D01*
X325531Y175260D02*
X345440D01*
X187960Y297180D02*
X310098Y175042D01*
X325313D01*
X147320Y297180D02*
X187960D01*
X147320Y251170D02*
X264160Y134330D01*
X147320Y251170D02*
Y297180D01*
X60320Y368170D02*
X104410Y412260D01*
X60320Y297180D02*
Y368170D01*
Y205110D02*
X92710Y172720D01*
X60320Y205110D02*
Y297180D01*
X137850Y77580D02*
X224160D01*
X92710Y122720D02*
X137850Y77580D01*
X822960Y516890D02*
Y557530D01*
X866465Y402120D02*
X897890D01*
X842228Y401102D02*
X865447D01*
X680720Y576580D02*
X690880Y586740D01*
X920750D02*
X949960Y557530D01*
X690880Y586740D02*
X920750D01*
X542290Y480060D02*
Y491490D01*
X530860Y468630D02*
X542290Y480060D01*
X897890Y452120D02*
X922020D01*
X949960Y424180D01*
X127000Y172720D02*
X158750Y140970D01*
X92710Y172720D02*
X127000D01*
X690880Y237490D02*
X724730D01*
X624840Y277190D02*
Y300990D01*
X746760Y177800D02*
X767080D01*
X778510Y195580D02*
Y207210D01*
X737870Y168910D02*
X746760Y177800D01*
X737870Y160566D02*
Y168910D01*
X679450Y488950D02*
X711924D01*
X336560Y562610D02*
X359410D01*
X379730Y461010D02*
X405130D01*
X344170D02*
X379730D01*
X598170Y318770D02*
X620122D01*
X607060Y250190D02*
X621340D01*
X591820Y566420D02*
X610550D01*
X494760Y585470D02*
X610550D01*
X820420Y387350D02*
Y471170D01*
X859790Y347980D02*
X942340D01*
X768350Y488950D02*
X802640D01*
X820420Y471170D01*
Y387350D02*
X859790Y347980D01*
X680720Y576580D02*
X768350Y488950D01*
X652780Y576580D02*
X680720D01*
X726440Y488950D02*
X768350D01*
X509270Y318770D02*
Y324830D01*
X620122Y318770D02*
X631121Y329769D01*
X423215Y325120D02*
X508980D01*
X586740Y270510D02*
X607060Y250190D01*
X570230Y270510D02*
X586740D01*
X215900Y383540D02*
Y431800D01*
Y445010D01*
Y431800D02*
X231140Y416560D01*
X942340Y347980D02*
X949960Y355600D01*
Y424180D01*
X494982Y547150D02*
X498892Y543240D01*
Y534888D02*
X500380Y533400D01*
X472440Y547150D02*
X494982D01*
X498892Y534888D02*
Y543240D01*
X436880Y342900D02*
X458470D01*
X473710Y358140D02*
X487680D01*
X458470Y342900D02*
X473710Y358140D01*
X403860Y362170D02*
Y438150D01*
X411480Y445770D01*
X403860Y362170D02*
X420880Y345150D01*
X777240Y367030D02*
X793750Y350520D01*
X713740Y435610D02*
X765810D01*
X676910Y346710D02*
Y398780D01*
X713740Y435610D01*
X665480Y335280D02*
X676910Y346710D01*
X651148Y335280D02*
X665480D01*
X726440Y330200D02*
Y366200D01*
X775752Y320040D02*
X777240Y318552D01*
X736600Y320040D02*
X775752D01*
X726440Y330200D02*
X736600Y320040D01*
X769620Y133350D02*
X886930D01*
X737870D02*
X769620D01*
X795020Y158750D01*
Y349250D01*
X763270Y367030D02*
X777240D01*
X407975Y309880D02*
Y327745D01*
Y226365D02*
Y309880D01*
X423215Y325120D01*
X407975Y327745D02*
X420880Y340650D01*
X339050Y546100D02*
X369530Y515620D01*
X431800D01*
X445770Y501650D01*
Y473710D02*
Y501650D01*
X435610Y463550D02*
X445770Y473710D01*
X422186Y463550D02*
X435610D01*
X275590Y335280D02*
X297180D01*
X264160D02*
X275590D01*
Y313690D02*
Y335280D01*
X318770Y248920D02*
Y270510D01*
X275590Y313690D02*
X318770Y270510D01*
X323416Y443664D02*
Y461010D01*
Y443664D02*
X341630Y425450D01*
Y345440D02*
Y425450D01*
X331470Y335280D02*
X341630Y345440D01*
X315705Y335280D02*
X331470D01*
X215900Y461010D02*
X323416D01*
X215900Y383540D02*
X264160Y335280D01*
X110490Y434340D02*
Y521280D01*
X462280Y110490D02*
X505970D01*
X454660D02*
X462280D01*
X487680Y135890D02*
Y200660D01*
X462280Y110490D02*
X487680Y135890D01*
X320040Y228880D02*
X335560Y213360D01*
X378460D01*
X391465Y226365D01*
X407975D01*
X505970Y64260D02*
X513080Y57150D01*
X717314D01*
X505970Y64260D02*
Y110490D01*
X553720D02*
X572770Y91440D01*
X713740D01*
X717314Y87866D01*
X618490Y109220D02*
X713740D01*
X737870Y133350D01*
X886930D02*
X899160Y145580D01*
X737870Y133350D02*
Y146050D01*
X553720Y110490D02*
X596466D01*
X521970D02*
X553720D01*
X717314Y75166D02*
Y87866D01*
X434020Y89850D02*
X454660Y110490D01*
D48*
X422910Y217170D02*
X438150D01*
X406400Y200660D02*
X422910Y217170D01*
D49*
X193870Y527250D02*
Y539750D01*
D50*
X239630Y41510D02*
Y50800D01*
X264160Y75330D01*
D51*
X797560Y557530D02*
D03*
X848360D02*
D03*
X924560D02*
D03*
D52*
X822960D02*
D03*
D53*
X949960D02*
D03*
D54*
X92710Y172720D02*
D03*
X897890Y402120D02*
D03*
X899160Y145580D02*
D03*
D55*
X92710Y122720D02*
D03*
X897890Y452120D02*
D03*
X899160Y195580D02*
D03*
D56*
X406400Y200660D02*
D03*
X619760Y445770D02*
D03*
X379730Y490220D02*
D03*
X238760Y40640D02*
D03*
X158750Y140970D02*
D03*
X822960Y516890D02*
D03*
X542290Y491490D02*
D03*
X690880Y237490D02*
D03*
X529590Y233680D02*
D03*
X624840Y300990D02*
D03*
X345440Y175260D02*
D03*
X778510Y195580D02*
D03*
X767080Y177800D02*
D03*
X678815Y488315D02*
D03*
X359410Y562610D02*
D03*
X680720Y576580D02*
D03*
X515620Y445770D02*
D03*
X591820Y566420D02*
D03*
X561340Y400050D02*
D03*
X231140Y416560D02*
D03*
X177165Y501015D02*
D03*
X487680Y358140D02*
D03*
X407975Y226365D02*
D03*
M02*
