G04*
G04 #@! TF.GenerationSoftware,Altium Limited,Altium Designer,24.9.1 (31)*
G04*
G04 Layer_Physical_Order=1*
G04 Layer_Color=255*
%FSLAX44Y44*%
%MOMM*%
G71*
G04*
G04 #@! TF.SameCoordinates,C529CC8A-3AB7-442F-99C3-DD5D11A4DA55*
G04*
G04*
G04 #@! TF.FilePolarity,Positive*
G04*
G01*
G75*
%ADD13C,0.2540*%
%ADD14R,1.4000X0.9500*%
%ADD15R,1.2500X0.5500*%
%ADD16R,1.2700X0.5498*%
%ADD17R,1.2500X0.5486*%
%ADD18R,0.7154X0.6725*%
%ADD25C,1.5000*%
G04:AMPARAMS|DCode=26|XSize=1.5mm|YSize=1.5mm|CornerRadius=0.375mm|HoleSize=0mm|Usage=FLASHONLY|Rotation=0.000|XOffset=0mm|YOffset=0mm|HoleType=Round|Shape=RoundedRectangle|*
%AMROUNDEDRECTD26*
21,1,1.5000,0.7500,0,0,0.0*
21,1,0.7500,1.5000,0,0,0.0*
1,1,0.7500,0.3750,-0.3750*
1,1,0.7500,-0.3750,-0.3750*
1,1,0.7500,-0.3750,0.3750*
1,1,0.7500,0.3750,0.3750*
%
%ADD26ROUNDEDRECTD26*%
%ADD27C,1.2700*%
D13*
X295910Y337820D02*
X304800Y328930D01*
X279400Y354330D02*
X295910Y337820D01*
X337820D01*
X346710Y328930D01*
X347980D01*
X346710Y270510D02*
Y287418D01*
X347980Y288688D01*
X328930Y255270D02*
X331470D01*
X346710Y270510D01*
X347980Y288688D02*
Y299720D01*
X349250Y227690D02*
Y242570D01*
X376972Y337820D02*
X378460Y336332D01*
Y271780D02*
Y336332D01*
X356870Y337820D02*
X376972D01*
X349250Y242570D02*
X378460Y271780D01*
X347980Y318220D02*
Y328930D01*
X356870Y337820D01*
X351790Y162560D02*
Y206650D01*
X349250Y209190D02*
X351790Y206650D01*
X334010Y144780D02*
X351790Y162560D01*
X270728Y144562D02*
X272832D01*
X273050Y144780D01*
X254000Y161290D02*
X270728Y144562D01*
X273050Y144780D02*
X334010D01*
X254000Y161290D02*
Y183420D01*
X279400Y185960D02*
Y205740D01*
X278130Y184690D02*
X279400Y185960D01*
X278130Y184690D02*
Y185420D01*
X110227Y314879D02*
X120387D01*
X140970Y250408D02*
X142458Y248920D01*
X155780D01*
X74930Y183420D02*
Y307340D01*
X82550Y314960D01*
X100330D01*
X120650D02*
X127000Y308610D01*
Y247650D02*
Y308610D01*
Y247650D02*
X138430Y236220D01*
X155780D01*
X146050Y297180D02*
X213360D01*
X217170Y300990D01*
Y307340D01*
X210820Y313690D02*
X217170Y307340D01*
X191770Y313690D02*
X210820D01*
X247650D01*
X147320D02*
X181610D01*
X134620Y326390D02*
X147320Y313690D01*
X134620Y326390D02*
Y344170D01*
X144780Y354330D01*
X279400D01*
X304800Y183420D02*
Y328930D01*
X234950Y204470D02*
X241300Y210820D01*
X100330Y198120D02*
X106680Y204470D01*
X100330Y183420D02*
Y198120D01*
X119380Y223520D02*
X155780D01*
X257810Y313690D02*
X287020D01*
X288290Y314960D01*
X186690Y187960D02*
Y204470D01*
X106680D02*
X186690D01*
X234950D01*
X140970Y250408D02*
Y292100D01*
X146050Y297180D01*
X208280Y248920D02*
X240030D01*
X254000Y234950D01*
Y183420D02*
Y234950D01*
X208280Y236220D02*
X233680D01*
X241300Y228600D01*
Y210820D02*
Y228600D01*
D14*
X349250Y227690D02*
D03*
Y209190D02*
D03*
X347980Y318220D02*
D03*
Y299720D02*
D03*
D15*
X208280Y223520D02*
D03*
Y236220D02*
D03*
Y248920D02*
D03*
Y261620D02*
D03*
X155780Y223520D02*
D03*
Y236220D02*
D03*
D16*
Y248920D02*
D03*
D17*
Y261620D02*
D03*
D18*
X247650Y313690D02*
D03*
X257810D02*
D03*
X181610D02*
D03*
X191770D02*
D03*
X100330Y314960D02*
D03*
X110490D02*
D03*
D25*
X254000Y183420D02*
D03*
X279400D02*
D03*
X100330D02*
D03*
X74930D02*
D03*
D26*
X304800D02*
D03*
X125730D02*
D03*
D27*
X328930Y255270D02*
D03*
X279400Y205740D02*
D03*
X186690Y187960D02*
D03*
X119380Y223520D02*
D03*
X288290Y314960D02*
D03*
M02*
