G04*
G04 #@! TF.GenerationSoftware,Altium Limited,Altium Designer,24.9.1 (31)*
G04*
G04 Layer_Color=65535*
%FSLAX44Y44*%
%MOMM*%
G71*
G04*
G04 #@! TF.SameCoordinates,C529CC8A-3AB7-442F-99C3-DD5D11A4DA55*
G04*
G04*
G04 #@! TF.FilePolarity,Negative*
G04*
G01*
G75*
%ADD14R,1.4000X0.9500*%
%ADD18R,0.7154X0.6725*%
%ADD19R,1.4532X0.7532*%
%ADD20R,1.4732X0.7530*%
%ADD21R,1.4532X0.7518*%
%ADD22C,1.7032*%
G04:AMPARAMS|DCode=23|XSize=1.7032mm|YSize=1.7032mm|CornerRadius=0.4766mm|HoleSize=0mm|Usage=FLASHONLY|Rotation=0.000|XOffset=0mm|YOffset=0mm|HoleType=Round|Shape=RoundedRectangle|*
%AMROUNDEDRECTD23*
21,1,1.7032,0.7500,0,0,0.0*
21,1,0.7500,1.7032,0,0,0.0*
1,1,0.9532,0.3750,-0.3750*
1,1,0.9532,-0.3750,-0.3750*
1,1,0.9532,-0.3750,0.3750*
1,1,0.9532,0.3750,0.3750*
%
%ADD23ROUNDEDRECTD23*%
%ADD24C,1.4732*%
D14*
X349250Y227690D02*
D03*
Y209190D02*
D03*
X347980Y318220D02*
D03*
Y299720D02*
D03*
D18*
X247650Y313690D02*
D03*
X257810D02*
D03*
X181610D02*
D03*
X191770D02*
D03*
X100330Y314960D02*
D03*
X110490D02*
D03*
D19*
X208280Y223520D02*
D03*
Y236220D02*
D03*
Y248920D02*
D03*
Y261620D02*
D03*
X155780Y223520D02*
D03*
Y236220D02*
D03*
D20*
Y248920D02*
D03*
D21*
Y261620D02*
D03*
D22*
X254000Y183420D02*
D03*
X279400D02*
D03*
X100330D02*
D03*
X74930D02*
D03*
D23*
X304800D02*
D03*
X125730D02*
D03*
D24*
X328930Y255270D02*
D03*
X279400Y205740D02*
D03*
X186690Y187960D02*
D03*
X119380Y223520D02*
D03*
X288290Y314960D02*
D03*
M02*
